<?xml version="1.0" encoding="UTF-8" standalone="no"?>
<svg
   viewBox="0 0 960 960"
   version="1.1"
   id="svg1"
   sodipodi:docname="file-image.svg"
   width="300"
   height="300"
   inkscape:version="1.4 (86a8ad7, 2024-10-11)"
   xmlns:inkscape="http://www.inkscape.org/namespaces/inkscape"
   xmlns:sodipodi="http://sodipodi.sourceforge.net/DTD/sodipodi-0.dtd"
   xmlns="http://www.w3.org/2000/svg"
   xmlns:svg="http://www.w3.org/2000/svg">
  <defs
     id="defs1" />
  <sodipodi:namedview
     id="namedview1"
     pagecolor="#ffffff"
     bordercolor="#000000"
     borderopacity="0.25"
     inkscape:showpageshadow="2"
     inkscape:pageopacity="0.0"
     inkscape:pagecheckerboard="0"
     inkscape:deskcolor="#d1d1d1"
     inkscape:zoom="1.0308291"
     inkscape:cx="-35.408391"
     inkscape:cy="309.94468"
     inkscape:window-width="1920"
     inkscape:window-height="1177"
     inkscape:window-x="-8"
     inkscape:window-y="-8"
     inkscape:window-maximized="1"
     inkscape:current-layer="svg1" />
  <!--!Font Awesome Free 7.0.1 by @fontawesome - https://fontawesome.com License - https://fontawesome.com/license/free Copyright 2025 Fonticons, Inc.-->
  <path
     d="M 140,142.49999 C 140,80.449217 192.31771,30 256.66666,30 H 529.1927 c 30.9896,0 60.70315,11.777343 82.57814,32.871094 L 805.91147,250.25391 C 827.78648,271.34765 840,299.99999 840,329.88281 V 817.49998 C 840,879.55076 787.6823,930 723.33334,930 H 256.66666 C 192.31771,930 140,879.55076 140,817.49998 Z m 379.16668,-9.66796 v 164.35546 c 0,23.37891 19.5052,42.1875 43.74998,42.1875 H 733.35937 Z M 373.33334,479.99999 c 0,-31.11328 -26.06769,-56.25 -58.33333,-56.25 -32.26563,0 -58.33335,25.13672 -58.33335,56.25 0,31.11328 26.06772,56.25001 58.33335,56.25001 32.26564,0 58.33333,-25.13673 58.33333,-56.25001 z m -64.53125,337.49999 h 362.39584 c 28.80206,0 52.13541,-22.49999 52.13541,-50.27342 0,-12.83204 -5.10419,-25.31251 -14.40104,-34.62891 L 532.47395,553.65233 C 521.53646,542.57812 506.22397,536.25 490.18229,536.25 h -0.54686 c -16.04168,0 -31.17189,6.32812 -42.29167,17.40233 L 271.06771,732.59765 c -9.29687,9.3164 -14.40105,21.79687 -14.40105,34.62891 0,27.77343 23.33335,50.27342 52.13543,50.27342 z"
     id="path1"
     style="stroke-width:1.79008" />
</svg>
