<?xml version="1.0" encoding="UTF-8" standalone="no"?>
<!-- Created with Inkscape (http://www.inkscape.org/) -->

<svg
   version="1.1"
   id="svg1"
   width="960"
   height="960"
   viewBox="0 0 1000 1000"
   sodipodi:docname="download.svg"
   inkscape:version="1.4 (86a8ad7, 2024-10-11)"
   xml:space="preserve"
   xmlns:inkscape="http://www.inkscape.org/namespaces/inkscape"
   xmlns:sodipodi="http://sodipodi.sourceforge.net/DTD/sodipodi-0.dtd"
   xmlns="http://www.w3.org/2000/svg"
   xmlns:svg="http://www.w3.org/2000/svg"><defs
     id="defs1"><inkscape:path-effect
       effect="fillet_chamfer"
       id="path-effect4"
       is_visible="true"
       lpeversion="1"
       nodesatellites_param="F,0,0,1,0,20.833333,0,1 @ F,0,0,1,0,20.833333,0,1 @ F,0,0,1,0,20.833333,0,1 @ F,0,0,1,0,20.833333,0,1 @ F,0,0,1,0,20.833333,0,1 @ F,0,0,1,0,20.833333,0,1 @ F,0,0,1,0,20.833333,0,1"
       radius="20"
       unit="px"
       method="auto"
       mode="F"
       chamfer_steps="1"
       flexible="false"
       use_knot_distance="true"
       apply_no_radius="true"
       apply_with_radius="true"
       only_selected="false"
       hide_knots="false" /><inkscape:path-effect
       effect="fillet_chamfer"
       id="path-effect3"
       is_visible="true"
       lpeversion="1"
       nodesatellites_param="F,0,0,1,0,41.666667,0,1 @ F,0,0,1,0,41.666667,0,1 @ F,0,0,1,0,41.666667,0,1 @ F,0,0,1,0,41.666667,0,1 @ F,0,0,1,0,41.666667,0,1 @ F,0,0,1,0,41.666667,0,1 @ F,0,0,1,0,41.666667,0,1 @ F,0,0,1,0,41.666667,0,1 @ F,0,0,1,0,41.666667,0,1 @ F,0,0,1,0,41.666667,0,1 @ F,0,0,1,0,41.666667,0,1 @ F,0,0,1,0,41.666667,0,1 @ F,0,0,1,0,41.666667,0,1 @ F,0,0,1,0,41.666667,0,1 @ F,0,0,1,0,41.666667,0,1"
       radius="40"
       unit="px"
       method="auto"
       mode="F"
       chamfer_steps="1"
       flexible="false"
       use_knot_distance="true"
       apply_no_radius="true"
       apply_with_radius="true"
       only_selected="false"
       hide_knots="false" /></defs><sodipodi:namedview
     id="namedview1"
     pagecolor="#ffffff"
     bordercolor="#000000"
     borderopacity="0.25"
     inkscape:showpageshadow="2"
     inkscape:pageopacity="0.0"
     inkscape:pagecheckerboard="0"
     inkscape:deskcolor="#d1d1d1"
     inkscape:zoom="0.30371093"
     inkscape:cx="437.91641"
     inkscape:cy="-265.05467"
     inkscape:window-width="1920"
     inkscape:window-height="1177"
     inkscape:window-x="-8"
     inkscape:window-y="-8"
     inkscape:window-maximized="1"
     inkscape:current-layer="svg1" /><path
     id="path2-3"
     style="display:inline;opacity:1;fill:#000000;fill-opacity:1;fill-rule:evenodd;stroke-width:3.12598;stroke-linecap:square;stroke-linejoin:round;paint-order:markers stroke fill"
     inkscape:label="download"
     d="M 72.916667,31.25 C 49.904802,31.25 31.25,49.904802 31.25,72.916667 V 729.16667 c 4e-6,23.01186 18.654805,41.66666 41.666667,41.66666 H 403.45256 c -2.54206,-16.23853 -3.8506,-32.64626 -3.91439,-49.08243 0.21336,-11.45211 1.03101,-22.88498 2.44954,-34.2509 H 156.25 c -23.01187,0 -41.66667,-18.6548 -41.66667,-41.66667 V 156.25 c 0,-23.01187 18.6548,-41.66667 41.66667,-41.66667 h 104.16667 c 26.33594,-2.4e-4 51.24407,11.97099 67.69612,32.53581 l 57.30388,72.06003 h 41.66463 l 333.3374,3.43029 c 23.07916,0.23738 41.66383,19.01353 41.66463,42.09391 v 140.81217 c 29.16952,7.12343 57.21319,18.24847 83.33334,33.05868 V 177.08333 c 0,-23.01186 -18.65481,-41.66666 -41.66667,-41.66666 H 458.33333 416.66667 L 388.79395,104.44539 350.78939,62.221273 C 333.04736,42.507521 307.77191,31.250403 281.25,31.25 H 220.54036 Z M 725.1241,462.5 C 581.80688,462.50041 465.62541,578.68188 465.625,721.9991 465.62429,865.31712 581.80608,981.49983 725.1241,981.50024 868.44292,981.50095 984.62595,865.31792 984.62524,721.9991 984.62483,578.68108 868.44212,462.49929 725.1241,462.5 Z m -10.56518,102.08333 h 26.34074 c 14.2375,-3e-5 25.77921,9.42313 25.77921,21.04696 v 140.271 h 49.7701 c 11.09892,10e-6 17.60136,9.91322 11.72486,17.64526 l -86.3912,113.66984 c -6.42093,8.44837 -21.49545,8.30027 -28.10669,0 L 627.28475,743.54451 c -6.05065,-7.59646 0.62598,-17.64318 11.72485,-17.64322 h 49.7701 v -140.271 c 0,-11.62385 11.54169,-21.04692 25.77922,-21.04696 z"
     sodipodi:nodetypes="sssscccssssccccccccssccccccscccccssscsssccscss" /></svg>
