<?xml version="1.0" encoding="UTF-8" standalone="no"?>
<!-- Created with Inkscape (http://www.inkscape.org/) -->

<svg
   version="1.1"
   id="svg1"
   width="960"
   height="960"
   viewBox="0 0 1000 1000"
   sodipodi:docname="folder_reload.svg"
   inkscape:version="1.4 (86a8ad7, 2024-10-11)"
   xml:space="preserve"
   xmlns:inkscape="http://www.inkscape.org/namespaces/inkscape"
   xmlns:sodipodi="http://sodipodi.sourceforge.net/DTD/sodipodi-0.dtd"
   xmlns="http://www.w3.org/2000/svg"
   xmlns:svg="http://www.w3.org/2000/svg"><defs
     id="defs1"><inkscape:path-effect
       effect="fillet_chamfer"
       id="path-effect3"
       is_visible="true"
       lpeversion="1"
       nodesatellites_param="F,0,0,1,0,41.666667,0,1 @ F,0,0,1,0,41.666667,0,1 @ F,0,0,1,0,41.666667,0,1 @ F,0,0,1,0,41.666667,0,1 @ F,0,0,1,0,41.666667,0,1 @ F,0,0,1,0,41.666667,0,1 @ F,0,0,1,0,41.666667,0,1 @ F,0,0,1,0,41.666667,0,1 @ F,0,0,1,0,41.666667,0,1 @ F,0,0,1,0,41.666667,0,1 @ F,0,0,1,0,41.666667,0,1 @ F,0,0,1,0,41.666667,0,1 @ F,0,0,1,0,41.666667,0,1 @ F,0,0,1,0,41.666667,0,1 @ F,0,0,1,0,41.666667,0,1"
       radius="40"
       unit="px"
       method="auto"
       mode="F"
       chamfer_steps="1"
       flexible="false"
       use_knot_distance="true"
       apply_no_radius="true"
       apply_with_radius="true"
       only_selected="false"
       hide_knots="false" /></defs><sodipodi:namedview
     id="namedview1"
     pagecolor="#ffffff"
     bordercolor="#000000"
     borderopacity="0.25"
     inkscape:showpageshadow="2"
     inkscape:pageopacity="0.0"
     inkscape:pagecheckerboard="0"
     inkscape:deskcolor="#d1d1d1"
     inkscape:zoom="0.85902423"
     inkscape:cx="473.79339"
     inkscape:cy="506.97056"
     inkscape:window-width="1920"
     inkscape:window-height="1177"
     inkscape:window-x="-8"
     inkscape:window-y="-8"
     inkscape:window-maximized="1"
     inkscape:current-layer="svg1" /><path
     id="path2"
     style="display:inline;opacity:1;fill:#000000;fill-opacity:1;fill-rule:evenodd;stroke-width:3.12598;stroke-linecap:square;stroke-linejoin:round;paint-order:markers stroke fill"
     d="M 72.916667 31.25 A 41.666667 41.666667 0 0 0 31.25 72.916667 L 31.25 729.16667 A 41.666667 41.666667 0 0 0 72.916667 770.83333 L 377.29696 770.83333 A 41.666667 41.666667 0 0 0 418.96362 729.16667 A 41.666665 41.666665 0 0 0 377.29696 687.5 L 156.25 687.5 A 41.666667 41.666667 0 0 1 114.58333 645.83333 L 114.58333 156.25 A 41.666667 41.666667 0 0 1 156.25 114.58333 L 260.41667 114.58333 A 86.692705 86.692705 0 0 1 328.11279 147.11914 L 359.38721 186.21419 A 87.847372 87.847372 0 0 0 427.0813 219.17928 L 760.4187 222.60946 A 42.097598 42.097598 0 0 1 802.08333 264.70337 L 802.08333 395.83333 A 41.666667 41.666667 0 0 0 843.75 437.5 A 41.666667 41.666667 0 0 0 885.41667 395.83333 L 885.41667 177.08333 A 41.666667 41.666667 0 0 0 843.75 135.41667 L 458.33333 135.41667 A 93.556766 93.556766 0 0 1 388.79395 104.44539 L 350.78939 62.221273 A 93.556766 93.556766 0 0 0 281.25 31.25 L 220.54036 31.25 L 72.916667 31.25 z M 724.34692 473.52295 C 607.24133 473.55955 504.53433 551.68717 473.24219 664.53451 L 541.30452 675.5778 C 564.46976 593.62457 639.25179 537.03059 724.4161 537.00155 C 781.94448 537.29613 836.25365 563.59217 872.16187 608.53882 L 776.22884 704.47184 L 984.56217 704.47184 L 984.56217 496.13851 L 919.14876 561.55192 C 869.78636 505.70807 798.87988 473.66615 724.34692 473.52295 z M 463.54167 750 L 463.54167 958.33333 L 528.95508 892.91992 C 578.31748 948.76377 649.22396 980.80569 723.75692 980.94889 C 840.86251 980.91229 943.56951 902.78468 974.86165 789.93734 L 906.79932 778.89404 C 883.63408 860.84727 808.85205 917.44126 723.68774 917.4703 C 666.15936 917.17572 611.8502 890.87967 575.94198 845.93302 L 671.875 750 L 465.2181 750 L 463.54167 750 z "
     inkscape:label="folder_reload" /></svg>
