<?xml version="1.0" encoding="UTF-8" standalone="no"?>
<svg
   viewBox="0 0 960 960"
   version="1.1"
   id="svg1"
   sodipodi:docname="file-image-solid-full.svg"
   width="960"
   height="960"
   inkscape:version="1.4 (86a8ad7, 2024-10-11)"
   xmlns:inkscape="http://www.inkscape.org/namespaces/inkscape"
   xmlns:sodipodi="http://sodipodi.sourceforge.net/DTD/sodipodi-0.dtd"
   xmlns="http://www.w3.org/2000/svg"
   xmlns:svg="http://www.w3.org/2000/svg">
  <defs
     id="defs1" />
  <sodipodi:namedview
     id="namedview1"
     pagecolor="#ffffff"
     bordercolor="#000000"
     borderopacity="0.25"
     inkscape:showpageshadow="2"
     inkscape:pageopacity="0.0"
     inkscape:pagecheckerboard="0"
     inkscape:deskcolor="#d1d1d1"
     inkscape:zoom="0.51541455"
     inkscape:cx="280.35685"
     inkscape:cy="924.49854"
     inkscape:window-width="1920"
     inkscape:window-height="1177"
     inkscape:window-x="-8"
     inkscape:window-y="-8"
     inkscape:window-maximized="1"
     inkscape:current-layer="svg1" />
  <!--!Font Awesome Free 7.0.1 by @fontawesome - https://fontawesome.com License - https://fontawesome.com/license/free Copyright 2025 Fonticons, Inc.-->
  <path
     id="path1"
     style="display:inline;stroke-width:1.05359"
     inkscape:label="image_folder_change"
     d="M 57.757812 29.810547 C 42.323332 29.810549 29.810549 42.323332 29.810547 57.757812 L 29.810547 497.91602 C 29.810544 513.3505 42.323328 525.86328 57.757812 525.86328 L 317.96094 525.86328 A 12.505651 12.505651 0 0 1 320 520.14453 L 320 469.9707 L 113.65039 469.9707 C 98.215911 469.9707 85.705075 457.45792 85.705078 442.02344 L 85.705078 113.65039 C 85.705082 98.215916 98.215916 85.705082 113.65039 85.705078 L 183.51758 85.705078 C 201.18158 85.704914 217.88718 93.734156 228.92188 107.52734 L 249.89844 133.74805 C 260.94734 147.55925 277.61674 155.67748 295.30273 155.85938 L 518.87891 158.16016 C 534.35853 158.31937 546.82173 170.91214 546.82227 186.39258 L 546.82227 332.16016 C 566.67899 337.1951 585.55896 345.58959 602.7168 356.93164 L 602.7168 127.625 C 602.7168 112.19052 590.20401 99.677731 574.76953 99.677734 L 316.26367 99.677734 C 298.47494 99.677458 281.52295 92.126679 269.62305 78.904297 L 244.13281 50.583984 C 232.23291 37.361606 215.27896 29.81082 197.49023 29.810547 L 156.77148 29.810547 L 57.757812 29.810547 z M 502.82812 339.11523 C 425.28724 339.14013 357.28049 392.25728 336.56055 468.98047 L 381.62695 476.48828 C 396.96569 420.76952 446.48386 382.29318 502.875 382.27344 C 540.96713 382.47372 576.92666 400.35162 600.70312 430.91016 L 537.18164 496.13281 L 675.12891 496.13281 L 675.12891 354.49023 L 631.81445 398.96484 C 599.12938 360.99746 552.17976 339.21259 502.82812 339.11523 z M 687.63281 390.75195 L 687.63281 445.33789 L 750.55273 445.33789 L 872.04297 570.49414 L 872.04297 862.75977 C 872.04297 867.13591 867.13591 872.04297 862.75977 872.04297 L 593.04102 872.04297 C 588.6177 872.04297 583.55859 867.18309 583.55859 862.75977 L 583.55859 677.36133 C 565.57409 686.37486 546.04486 692.47137 525.61133 695.11523 L 525.61133 862.75977 C 525.61133 899.95152 555.84927 930.18945 593.04102 930.18945 L 862.75977 930.18945 C 899.95152 930.18945 930.18945 899.95152 930.18945 862.75977 L 930.18945 570.49414 C 930.18945 552.5831 923.12942 535.40874 910.48633 522.76562 L 798.2793 410.45312 C 785.63621 397.81003 768.46377 390.75195 750.55273 390.75195 L 687.63281 390.75195 z M 550.75977 406.07812 C 535.54408 418.44996 525.61133 437.07966 525.61133 458.18164 L 525.61133 491.78516 A 12.505651 12.505651 0 0 1 528.22266 487.4082 L 583.71875 430.42773 C 574.15294 420.25165 562.96613 412.0517 550.75977 406.07812 z M 744.75781 452.38672 L 744.75781 550.89648 C 744.75781 564.90923 756.03022 576.18359 770.04297 576.18359 L 868.55469 576.18359 L 744.75781 452.38672 z M 525.61133 500.00195 L 525.61133 625.87891 C 547.85274 621.09889 567.97622 609.65287 583.55859 593.23047 L 583.55859 508.63867 L 537.18164 508.63867 A 12.505651 12.505651 0 0 1 525.61133 500.00195 z M 330.13672 527.08789 L 330.13672 668.73047 L 373.45117 624.25586 C 406.13625 662.22325 453.08588 684.00811 502.4375 684.10547 C 579.97839 684.08057 647.98515 630.96342 668.70508 554.24023 L 623.63867 546.73242 C 608.29992 602.45117 558.7837 640.92752 502.39258 640.94727 C 464.30045 640.74698 428.33896 622.86908 404.5625 592.31055 L 468.08398 527.08789 L 340 527.08789 L 330.13672 527.08789 z M 653.91797 629.17969 C 649.68511 629.17969 645.67867 630.04475 641.94922 631.46289 C 635.90888 638.56262 629.35793 645.16225 622.38672 651.24805 C 621.04339 654.89025 620.20313 658.78029 620.20312 662.89453 C 620.20312 681.54309 635.26941 696.61133 653.91797 696.61133 C 672.56652 696.61133 687.63281 681.54309 687.63281 662.89453 C 687.63281 644.24598 672.56652 629.17969 653.91797 629.17969 z M 727.6875 694.18555 C 718.4159 694.18555 709.67299 697.97761 703.24609 704.61523 L 601.36328 811.87109 C 595.98997 817.45512 593.04102 824.93574 593.04102 832.62695 C 593.04102 849.27369 606.52513 862.75977 623.17188 862.75977 L 832.62695 862.75977 C 849.27369 862.75977 862.75977 849.27369 862.75977 832.62695 C 862.75977 824.93574 859.80886 817.45512 854.43555 811.87109 L 752.44727 704.61523 C 746.12573 697.97761 737.27746 694.18555 728.00586 694.18555 L 727.6875 694.18555 z " />
</svg>
