<?xml version="1.0" encoding="UTF-8" standalone="no"?>
<!-- Created with Inkscape (http://www.inkscape.org/) -->

<svg
   version="1.1"
   id="svg1"
   width="960"
   height="960"
   viewBox="0 0 48 48"
   sodipodi:docname="name.svg"
   inkscape:version="1.4 (86a8ad7, 2024-10-11)"
   xml:space="preserve"
   xmlns:inkscape="http://www.inkscape.org/namespaces/inkscape"
   xmlns:sodipodi="http://sodipodi.sourceforge.net/DTD/sodipodi-0.dtd"
   xmlns="http://www.w3.org/2000/svg"
   xmlns:svg="http://www.w3.org/2000/svg"><defs
     id="defs1"><inkscape:path-effect
       effect="fillet_chamfer"
       id="path-effect1"
       is_visible="true"
       lpeversion="1"
       nodesatellites_param="F,0,0,1,0,2.5,0,1 @ F,0,0,1,0,2.5,0,1 @ F,0,0,1,0,2.5,0,1 @ F,0,0,1,0,2.5,0,1"
       radius="50"
       unit="px"
       method="auto"
       mode="F"
       chamfer_steps="1"
       flexible="false"
       use_knot_distance="true"
       apply_no_radius="true"
       apply_with_radius="true"
       only_selected="false"
       hide_knots="false" /><inkscape:path-effect
       effect="fillet_chamfer"
       id="path-effect1-4"
       is_visible="true"
       lpeversion="1"
       nodesatellites_param="F,0,0,1,0,2.5,0,1 @ F,0,0,1,0,2.5,0,1 @ F,0,0,1,0,2.5,0,1 @ F,0,0,1,0,2.5,0,1"
       radius="50"
       unit="px"
       method="auto"
       mode="F"
       chamfer_steps="1"
       flexible="false"
       use_knot_distance="true"
       apply_no_radius="true"
       apply_with_radius="true"
       only_selected="false"
       hide_knots="false" /></defs><sodipodi:namedview
     id="namedview1"
     pagecolor="#ffffff"
     bordercolor="#000000"
     borderopacity="0.25"
     inkscape:showpageshadow="2"
     inkscape:pageopacity="0.0"
     inkscape:pagecheckerboard="0"
     inkscape:deskcolor="#d1d1d1"
     showguides="false"
     inkscape:zoom="0.70710678"
     inkscape:cx="219.2031"
     inkscape:cy="764.38243"
     inkscape:window-width="1920"
     inkscape:window-height="1177"
     inkscape:window-x="-8"
     inkscape:window-y="-8"
     inkscape:window-maximized="1"
     inkscape:current-layer="svg1" /><path
     id="rect1-8"
     style="display:inline;opacity:1;fill-rule:evenodd;stroke:none;stroke-width:0.120042;stroke-linecap:square;stroke-linejoin:round;paint-order:markers stroke fill"
     inkscape:label="name"
     d="m 10.3564,10.010547 c -1.0008391,-6.61e-4 -2.0287837,0.793009 -2.0000977,1.999902 0.02955,1.243137 0.9996376,2.000405 2.0000977,2.000098 h 25.201563 c 1.104637,0 2.000097,-0.895526 2.000097,-2.000098 0,-1.104572 -0.89546,-1.999902 -2.000097,-1.999902 z m -7.9242188,0.01357 A 1.9276891,1.9864182 0 0 0 0.50444687,12.010449 1.9276891,1.9864182 0 0 0 2.4321812,13.996875 1.9276891,1.9864182 0 0 0 4.3599156,12.010449 1.9276891,1.9864182 0 0 0 2.4321812,10.024121 Z m 13.1427738,11.975 c -1.000839,-6.61e-4 -2.028784,0.793009 -2.000098,1.999902 0.02955,1.243137 0.999638,2.000405 2.000098,2.000098 h 25.201562 c 1.104637,0 2.000098,-0.895526 2.000098,-2.000098 0,-1.104572 -0.895461,-1.999902 -2.000098,-1.999902 z m -7.9242191,0.01357 a 1.9276891,1.9864182 0 0 0 -1.9277344,1.986328 1.9276891,1.9864182 0 0 0 1.9277344,1.986524 1.9276891,1.9864182 0 0 0 1.927734,-1.986524 1.9276891,1.9864182 0 0 0 -1.927734,-1.986328 z m 12.6864261,11.94786 c -1.000839,-6.61e-4 -2.028784,0.793009 -2.000098,1.999902 0.02955,1.243137 0.999638,2.000405 2.000098,2.000098 h 25.201562 c 1.104637,0 2.000098,-0.895526 2.000098,-2.000098 0,-1.104572 -0.89546,-1.999902 -2.000098,-1.999902 z m -7.924219,0.01357 a 1.9276891,1.9864182 0 0 0 -1.927734,1.986328 1.9276891,1.9864182 0 0 0 1.927734,1.986426 1.9276891,1.9864182 0 0 0 1.927734,-1.986426 1.9276891,1.9864182 0 0 0 -1.927734,-1.986328 z" /></svg>
